<?xml version="1.0" encoding="UTF-8" standalone="no"?>
<svg
   xmlns:dc="http://purl.org/dc/elements/1.1/"
   xmlns:cc="http://creativecommons.org/ns#"
   xmlns:rdf="http://www.w3.org/1999/02/22-rdf-syntax-ns#"
   xmlns:svg="http://www.w3.org/2000/svg"
   xmlns="http://www.w3.org/2000/svg"
   xmlns:sodipodi="http://sodipodi.sourceforge.net/DTD/sodipodi-0.dtd"
   xmlns:inkscape="http://www.inkscape.org/namespaces/inkscape"
   version="1.0"
   width="287.07932pt"
   height="154.37888pt"
   viewBox="0 0 287.07933 154.37887"
   preserveAspectRatio="xMidYMid meet"
   id="svg2"
   inkscape:version="0.91 r13725"
   sodipodi:docname="jsonforms-logo-white-release.svg">
  <defs
     id="defs24" />
  <sodipodi:namedview
     pagecolor="#ffffff"
     bordercolor="#666666"
     borderopacity="1"
     objecttolerance="10"
     gridtolerance="10"
     guidetolerance="10"
     inkscape:pageopacity="0"
     inkscape:pageshadow="2"
     inkscape:window-width="1684"
     inkscape:window-height="802"
     id="namedview22"
     showgrid="false"
     inkscape:zoom="3.8356164"
     inkscape:cx="194.74145"
     inkscape:cy="104.59485"
     inkscape:window-x="2100"
     inkscape:window-y="115"
     inkscape:window-maximized="0"
     inkscape:current-layer="svg2"
     fit-margin-top="0"
     fit-margin-left="70"
     fit-margin-right="0"
     fit-margin-bottom="0" />
  <metadata
     id="metadata4">
Created by potrace 1.13, written by Peter Selinger 2001-2015
<rdf:RDF>
  <cc:Work
     rdf:about="">
    <dc:format>image/svg+xml</dc:format>
    <dc:type
       rdf:resource="http://purl.org/dc/dcmitype/StillImage" />
    <dc:title></dc:title>
  </cc:Work>
</rdf:RDF>
</metadata>
  <g
     transform="matrix(0.1,0,0,-0.1,70.14046,154.40205)"
     id="g6"
     style="fill:#000000;stroke:none">
    <path
       d="M 161,937 C 112,913 99,872 91,716 84,560 76,539 24,526 6,521 0,513 0,491 0,469 7,460 30,450 78,430 87,400 92,238 96,117 100,86 116,58 141,16 207,-9 247,9 c 36,16 28,52 -14,63 -18,5 -36,14 -40,21 -4,6 -10,75 -13,152 -6,151 -22,208 -69,231 l -22,11 25,17 c 47,30 59,70 65,219 6,146 10,157 58,157 28,0 37,14 29,46 -5,20 -12,24 -44,24 -20,0 -48,-6 -61,-13 z"
       id="path8"
       inkscape:connector-curvature="0" />
    <path
       d="m 1204,936 c -11,-29 1,-51 28,-54 49,-6 58,-33 58,-172 0,-141 13,-185 64,-209 l 29,-14 -25,-13 c -46,-24 -61,-75 -68,-229 -3,-77 -9,-146 -13,-152 -4,-7 -22,-16 -40,-21 -22,-6 -33,-15 -35,-30 -5,-32 33,-47 86,-32 66,17 74,38 83,210 8,162 23,214 66,231 36,13 32,64 -6,77 -46,16 -54,44 -60,202 -7,158 -17,191 -67,210 -38,15 -94,12 -100,-4 z"
       id="path10"
       inkscape:connector-curvature="0" />
    <path
       d="M 467,923 C 452,921 424,903 405,885 360,840 358,814 362,435 366,5 339,35 730,35 c 395,0 365,-37 365,445 0,479 27,444 -345,446 -140,1 -268,0 -283,-3 z m 553,-73 c 19,-19 20,-33 20,-372 0,-313 -2,-353 -17,-370 -15,-17 -37,-18 -290,-18 -260,0 -274,1 -293,20 -19,19 -20,33 -20,370 0,337 1,351 20,370 19,19 33,20 290,20 257,0 271,-1 290,-20 z"
       id="path12"
       inkscape:connector-curvature="0" />
    <path
       d="m 500,740 c 0,-19 7,-20 235,-20 228,0 235,1 235,20 0,19 -7,20 -235,20 -228,0 -235,-1 -235,-20 z"
       id="path14"
       inkscape:connector-curvature="0" />
    <path
       d="m 500,590 c 0,-19 7,-20 235,-20 228,0 235,1 235,20 0,19 -7,20 -235,20 -228,0 -235,-1 -235,-20 z"
       id="path16"
       inkscape:connector-curvature="0" />
    <path
       d="m 500,410 c 0,-19 7,-20 235,-20 228,0 235,1 235,20 0,19 -7,20 -235,20 -228,0 -235,-1 -235,-20 z"
       id="path18"
       inkscape:connector-curvature="0" />
    <path
       d="m 500,240 c 0,-19 7,-20 235,-20 228,0 235,1 235,20 0,19 -7,20 -235,20 -228,0 -235,-1 -235,-20 z"
       id="path20"
       inkscape:connector-curvature="0" />
  </g>
  <path
     style="fill:#ffffff;stroke:#ffffff;stroke-width:0.80000001"
     d="m 123.69,150.69847 c -13.31254,-0.4812 -16.0083,-3.16974 -16.91195,-16.86664 -0.3652,-5.53533 -0.38441,-55.042138 -0.0225,-58.087138 0.60752,-5.11218 1.36812,-7.06167 3.66262,-9.38772 1.69858,-1.72195 4.27532,-3.48482 5.84183,-3.99668 0.96304,-0.31468 3.14975,-0.35777 22.13433,-0.43616 21.60729,-0.0892 27.32146,0.0399 30.77619,0.69522 7.36919,1.39791 9.51715,4.93049 10.20014,16.77534 0.28524,4.94682 0.28117,49.549238 -0.005,54.361858 -0.73841,12.41968 -3.14926,15.59993 -12.72238,16.78261 -2.16728,0.26776 -36.43691,0.39485 -42.95327,0.15931 z m 40.67143,-5.39849 c 6.40697,-0.27736 7.6993,-0.6207 8.54013,-2.26886 1.14549,-2.24534 1.3082,-7.73478 1.20324,-40.59363 -0.0888,-27.818658 -0.13577,-29.476008 -0.89262,-31.525628 -0.39958,-1.08208 -1.87065,-2.46666 -2.93677,-2.76409 -2.47788,-0.69131 -4.4673,-0.74595 -27.08398,-0.74392 -26.69151,0.002 -27.10334,0.0289 -29.01488,1.86942 -1.08998,1.04947 -1.43156,2.13631 -1.79069,5.69774 -0.3852,3.81993 -0.3852,59.047428 0,62.867348 0.32217,3.19484 0.69132,4.52911 1.51151,5.46325 1.23685,1.4087 2.66985,1.76363 8.01978,1.9864 5.6496,0.23525 37.08185,0.24411 42.44428,0.012 l 0,0 z"
     id="path3376"
     inkscape:connector-curvature="0" />
  <path
     style="fill:#ffffff;stroke:#ffffff;stroke-width:0.80000001"
     d="m 124.0831,115.06313 c -3.2664,-0.26125 -4.24827,-0.8302 -3.73997,-2.16713 0.28479,-0.74905 1.22338,-0.96971 5.11973,-1.20366 4.97495,-0.29872 38.18336,-0.10361 39.73286,0.23344 1.3581,0.29542 1.87714,0.70078 1.87714,1.46605 0,0.74746 -0.54473,1.20041 -1.78876,1.48737 -1.20992,0.2791 -37.95992,0.44315 -41.201,0.18393 z"
     id="path3378"
     inkscape:connector-curvature="0" />
  <path
     style="fill:#ffffff;stroke:#ffffff;stroke-width:0.80000001"
     d="m 127.23572,132.17574 c -5.65723,-0.18681 -6.7134,-0.41182 -6.98344,-1.48775 -0.18302,-0.7292 0.4091,-1.4112 1.4563,-1.67736 0.45885,-0.11663 5.55167,-0.31222 11.31738,-0.43465 11.934,-0.25342 31.1581,0.0246 32.76146,0.47381 1.00872,0.2826 1.42096,0.87654 1.20516,1.73636 -0.17786,0.70866 -0.59458,0.8991 -2.54693,1.16393 -2.02071,0.2741 -30.51091,0.44688 -37.20993,0.22566 z"
     id="path3380"
     inkscape:connector-curvature="0" />
  <path
     style="fill:#ffffff;stroke:#ffffff;stroke-width:0.80000001"
     d="m 125.56715,97.125472 c -3.93782,-0.18619 -4.98359,-0.44663 -5.27008,-1.31247 -0.2853,-0.86223 0.23233,-1.51385 1.45637,-1.83336 1.30503,-0.34065 37.90889,-0.53082 41.59534,-0.2161 3.11885,0.26626 3.71418,0.54441 3.72089,1.73848 0.004,0.74882 -0.5911,1.11875 -2.29109,1.42372 -1.62138,0.29086 -33.81566,0.45485 -39.21143,0.19973 z"
     id="path3382"
     inkscape:connector-curvature="0" />
  <path
     style="fill:#ffffff;stroke:#ffffff;stroke-width:0.80000001"
     d="m 125.03876,82.095902 c -3.56382,-0.17617 -4.54768,-0.45353 -4.77146,-1.34514 -0.23057,-0.91869 0.30496,-1.48991 1.69634,-1.8094 1.74247,-0.4001 41.52463,-0.40563 43.2609,-0.006 1.37012,0.31535 1.90776,0.80206 1.81181,1.64018 -0.121,1.05691 -1.08057,1.3287 -5.43743,1.54012 -4.50072,0.21841 -32.04344,0.20353 -36.56016,-0.0197 z"
     id="path3384"
     inkscape:connector-curvature="0" />
  <path
     style="fill:#ffffff;stroke:#ffffff;stroke-width:0.80000001"
     d="m 193.14293,153.65981 c -1.76269,-0.53618 -2.70851,-1.59705 -2.70851,-3.03797 0,-1.6142 1.0868,-2.62688 3.62914,-3.3816 1.53025,-0.45427 3.40258,-1.44576 3.75986,-1.99104 0.41654,-0.63572 0.86363,-5.13327 1.25938,-12.66879 0.55414,-10.55152 0.95549,-14.40606 1.87916,-18.04724 1.04864,-4.13388 2.56075,-6.17048 5.83171,-7.85453 l 1.8651,-0.96025 -2.35781,-1.18248 c -2.89545,-1.45213 -4.13008,-2.60002 -5.11981,-4.760128 -1.43045,-3.122 -1.74596,-5.86325 -1.98571,-17.25252 -0.19184,-9.11347 -0.4083,-11.38062 -1.27331,-13.33684 -0.79385,-1.7953 -1.77329,-2.52551 -3.94622,-2.94211 -2.82719,-0.54202 -3.91398,-1.69347 -3.68572,-3.90501 0.0638,-0.61745 0.26241,-1.34629 0.44152,-1.61965 1.02696,-1.56735 7.02324,-1.51854 10.45005,0.0851 4.13756,1.9362 5.13315,5.12676 5.8313,18.68759 0.6415,12.46057 0.99696,15.74053 1.98849,18.34863 0.625,1.64398 1.98094,2.995478 3.63847,3.626538 1.57788,0.60073 2.51129,1.31171 3.00645,2.29001 0.57,1.12615 0.70331,1.98469 0.4527,2.91538 -0.32678,1.21359 -0.93283,1.85512 -2.49636,2.64249 -4.31375,2.17238 -5.45048,6.27285 -6.47841,23.36934 -0.64468,10.72211 -1.05999,13.80447 -2.20329,16.35207 -0.65421,1.45779 -1.95398,2.77088 -3.35713,3.39156 -2.50322,1.10729 -6.77544,1.73206 -8.42105,1.23149 z"
     id="path3386"
     inkscape:connector-curvature="0" />
  <path
     style="fill:#ffffff;stroke:#ffffff;stroke-width:0.80000001"
     d="m 90.269221,153.85825 c -3.836837,-0.68646 -7.309497,-3.05312 -8.715879,-5.93998 -1.414167,-2.90284 -1.585336,-4.48249 -2.294807,-21.17787 -0.3439,-8.09271 -0.78914,-11.1682 -1.977777,-13.66143 -0.880613,-1.84714 -1.408473,-2.34199 -3.947497,-3.70071 C 70.618221,107.92536 70.4,107.6189 70.4,105.25905 c 0,-1.66063 0.05005,-1.89831 0.500711,-2.37803 0.275392,-0.29314 0.908928,-0.67613 1.407857,-0.85108 0.498931,-0.17496 1.347463,-0.47352 1.885628,-0.66346 1.28725,-0.45433 2.621765,-1.710268 3.169052,-2.982478 1.022687,-2.3773 1.344859,-4.79778 1.902895,-14.29646 0.778658,-13.254 1.461776,-17.22188 3.49413,-20.2956 1.779332,-2.69105 5.297218,-4.21154 9.744027,-4.21154 3.135396,0 3.74562,0.42292 4.26803,2.95799 0.306143,1.4856 0.023,2.7285 -0.734673,3.22494 -0.317459,0.20801 -1.290173,0.41246 -2.484787,0.52228 -2.246813,0.20654 -2.805013,0.37717 -3.439108,1.0513 -1.31992,1.40324 -1.634051,3.55768 -2.199064,15.08206 -0.447445,9.12637 -0.84278,12.37306 -1.898873,15.59447 -0.943661,2.878458 -2.16154,4.334168 -5.447968,6.511878 -0.831678,0.5511 -1.511131,1.05862 -1.509894,1.12783 0.0012,0.0692 0.72863,0.50125 1.616429,0.96011 2.945633,1.52244 4.440604,3.51934 5.552601,7.41683 0.951275,3.33418 1.400457,7.43918 1.904312,17.40317 0.367696,7.27139 0.813147,12.41294 1.162165,13.41414 0.282386,0.81005 1.425459,1.53138 3.583724,2.26148 2.79141,0.94428 4.115663,2.08938 4.115663,3.55887 0,2.13617 -3.454483,3.7754 -6.723636,3.1905 z"
     id="path3388"
     inkscape:connector-curvature="0" />
  <path
     sodipodi:type="star"
     style="fill:#ff0000;fill-rule:evenodd;stroke:#000000;stroke-width:1px;stroke-linecap:butt;stroke-linejoin:miter;stroke-opacity:1"
     id="path3336"
     sodipodi:sides="8"
     sodipodi:cx="225.71429"
     sodipodi:cy="389.50507"
     sodipodi:r1="163.00206"
     sodipodi:r2="87.714752"
     sodipodi:arg1="-2.0649276"
     sodipodi:arg2="-1.6722285"
     inkscape:flatsided="false"
     inkscape:rounded="0"
     inkscape:randomized="0"
     d="m 148.40779,246.00114 68.42465,56.24001 55.6905,-68.87263 8.61584,88.15123 88.07944,-9.32119 -56.24001,68.42466 68.87263,55.69049 -88.15122,8.61584 9.32118,88.07944 -68.42466,-56.24001 -55.69049,68.87264 -8.61584,-88.15123 -88.07944,9.32118 56.24001,-68.42465 -68.872635,-55.6905 88.151225,-8.61584 z"
     inkscape:transform-center-x="7.0926892"
     inkscape:transform-center-y="-0.80798928"
     transform="matrix(0.37804002,0,0,0.35469368,142.24668,-82.326093)" />
  <text
     xml:space="preserve"
     style="font-style:normal;font-weight:normal;font-size:9.85249519px;line-height:150%;font-family:sans-serif;letter-spacing:0px;word-spacing:0px;fill:#ffffff;fill-opacity:1;stroke:none;stroke-width:1px;stroke-linecap:butt;stroke-linejoin:miter;stroke-opacity:1"
     x="213.1322"
     y="85.304001"
     id="text3340"
     sodipodi:linespacing="150%"
     transform="matrix(0.925973,-0.26320854,0.25779105,1.0066678,0,0)"
     inkscape:transform-center-x="4.1032643"
     inkscape:transform-center-y="14.599026"><tspan
       sodipodi:role="line"
       id="tspan3342"
       x="213.1322"
       y="85.304001" /><tspan
       sodipodi:role="line"
       x="213.1322"
       y="99.832619"
       id="tspan3352"
       style="font-style:normal;font-variant:normal;font-weight:normal;font-stretch:normal;font-size:9.85254192px;line-height:150%;font-family:'Arial Black';-inkscape-font-specification:'Arial Black, Normal';text-align:center;writing-mode:lr-tb;text-anchor:middle">v1.0</tspan><tspan
       sodipodi:role="line"
       x="214.7775"
       y="114.61143"
       id="tspan3344"
       style="font-style:normal;font-variant:normal;font-weight:normal;font-stretch:normal;font-size:9.85254192px;line-height:150%;font-family:'Arial Black';-inkscape-font-specification:'Arial Black, Normal';text-align:center;writing-mode:lr-tb;text-anchor:middle">22nd July </tspan><tspan
       sodipodi:role="line"
       x="213.1322"
       y="129.39024"
       id="tspan3346"
       style="font-style:normal;font-variant:normal;font-weight:normal;font-stretch:normal;font-size:9.85254192px;line-height:150%;font-family:'Arial Black';-inkscape-font-specification:'Arial Black, Normal';text-align:center;writing-mode:lr-tb;text-anchor:middle">2016</tspan></text>
</svg>
