<?xml version="1.0" encoding="UTF-8" standalone="no"?>
<svg
   xmlns:dc="http://purl.org/dc/elements/1.1/"
   xmlns:cc="http://creativecommons.org/ns#"
   xmlns:rdf="http://www.w3.org/1999/02/22-rdf-syntax-ns#"
   xmlns:svg="http://www.w3.org/2000/svg"
   xmlns="http://www.w3.org/2000/svg"
   xmlns:sodipodi="http://sodipodi.sourceforge.net/DTD/sodipodi-0.dtd"
   xmlns:inkscape="http://www.inkscape.org/namespaces/inkscape"
   version="1.0"
   width="146.000000pt"
   height="95.000000pt"
   viewBox="0 0 146.000000 95.000000"
   preserveAspectRatio="xMidYMid meet"
   id="svg2"
   inkscape:version="0.91 r13725"
   sodipodi:docname="jsonforms-logo-white.svg">
  <defs
     id="defs24" />
  <sodipodi:namedview
     pagecolor="#ffffff"
     bordercolor="#666666"
     borderopacity="1"
     objecttolerance="10"
     gridtolerance="10"
     guidetolerance="10"
     inkscape:pageopacity="0"
     inkscape:pageshadow="2"
     inkscape:window-width="1684"
     inkscape:window-height="802"
     id="namedview22"
     showgrid="false"
     inkscape:zoom="3.8356164"
     inkscape:cx="71.264783"
     inkscape:cy="69.929916"
     inkscape:window-x="1740"
     inkscape:window-y="133"
     inkscape:window-maximized="0"
     inkscape:current-layer="svg2" />
  <metadata
     id="metadata4">
Created by potrace 1.13, written by Peter Selinger 2001-2015
<rdf:RDF>
  <cc:Work
     rdf:about="">
    <dc:format>image/svg+xml</dc:format>
    <dc:type
       rdf:resource="http://purl.org/dc/dcmitype/StillImage" />
    <dc:title></dc:title>
  </cc:Work>
</rdf:RDF>
</metadata>
  <g
     transform="translate(0.000000,95.000000) scale(0.100000,-0.100000)"
     fill="#000000"
     stroke="none"
     id="g6">
    <path
       d="M161 937 c-49 -24 -62 -65 -70 -221 -7 -156 -15 -177 -67 -190 -18 -5 -24 -13 -24 -35 0 -22 7 -31 30 -41 48 -20 57 -50 62 -212 4 -121 8 -152 24 -180 25 -42 91 -67 131 -49 36 16 28 52 -14 63 -18 5 -36 14 -40 21 -4 6 -10 75 -13 152 -6 151 -22 208 -69 231 l-22 11 25 17 c47 30 59 70 65 219 6 146 10 157 58 157 28 0 37 14 29 46 -5 20 -12 24 -44 24 -20 0 -48 -6 -61 -13z"
       id="path8" />
    <path
       d="M1204 936 c-11 -29 1 -51 28 -54 49 -6 58 -33 58 -172 0 -141 13 -185 64 -209 l29 -14 -25 -13 c-46 -24 -61 -75 -68 -229 -3 -77 -9 -146 -13 -152 -4 -7 -22 -16 -40 -21 -22 -6 -33 -15 -35 -30 -5 -32 33 -47 86 -32 66 17 74 38 83 210 8 162 23 214 66 231 36 13 32 64 -6 77 -46 16 -54 44 -60 202 -7 158 -17 191 -67 210 -38 15 -94 12 -100 -4z"
       id="path10" />
    <path
       d="M467 923 c-15 -2 -43 -20 -62 -38 -45 -45 -47 -71 -43 -450 4 -430 -23 -400 368 -400 395 0 365 -37 365 445 0 479 27 444 -345 446 -140 1 -268 0 -283 -3z m553 -73 c19 -19 20 -33 20 -372 0 -313 -2 -353 -17 -370 -15 -17 -37 -18 -290 -18 -260 0 -274 1 -293 20 -19 19 -20 33 -20 370 0 337 1 351 20 370 19 19 33 20 290 20 257 0 271 -1 290 -20z"
       id="path12" />
    <path
       d="M500 740 c0 -19 7 -20 235 -20 228 0 235 1 235 20 0 19 -7 20 -235 20 -228 0 -235 -1 -235 -20z"
       id="path14" />
    <path
       d="M500 590 c0 -19 7 -20 235 -20 228 0 235 1 235 20 0 19 -7 20 -235 20 -228 0 -235 -1 -235 -20z"
       id="path16" />
    <path
       d="M500 410 c0 -19 7 -20 235 -20 228 0 235 1 235 20 0 19 -7 20 -235 20 -228 0 -235 -1 -235 -20z"
       id="path18" />
    <path
       d="M500 240 c0 -19 7 -20 235 -20 228 0 235 1 235 20 0 19 -7 20 -235 20 -228 0 -235 -1 -235 -20z"
       id="path20" />
  </g>
  <path
     style="fill:#ffffff;stroke:#ffffff;stroke-width:1"
     d="m 66.936925,114.12052 c -16.640673,-0.6015 -20.01037,-3.96217 -21.139939,-21.083293 -0.456493,-6.91917 -0.480507,-68.802676 -0.02818,-72.608929 0.759407,-6.390214 1.710152,-8.827086 4.57827,-11.7346502 2.123225,-2.1524266 5.344159,-4.3560213 7.302293,-4.9958484 1.203803,-0.3933465 3.937191,-0.4472073 27.66791,-0.5451906 27.009111,-0.1115196 34.151821,0.04983 38.470231,0.8690194 9.2115,1.7473904 11.89645,6.1631118 12.75019,20.9691698 0.35655,6.183536 0.35146,61.936553 -0.006,67.952329 -0.92301,15.524593 -3.93657,19.499903 -15.90299,20.978263 -2.7091,0.33469 -45.546134,0.49356 -53.691589,0.19913 z m 50.839285,-6.74811 c 8.00872,-0.3467 9.62413,-0.77587 10.67517,-2.83608 1.43186,-2.80667 1.63525,-9.668469 1.50405,-50.742021 -0.11106,-34.773336 -0.16972,-36.845024 -1.11578,-39.407049 -0.49947,-1.352595 -2.33831,-3.083319 -3.67096,-3.455113 -3.09736,-0.864126 -5.58413,-0.9324304 -33.854979,-0.929898 -33.364392,0.003 -33.879172,0.03616 -36.268597,2.336775 -1.362479,1.311839 -1.789446,2.67039 -2.238366,7.122184 -0.481502,4.774906 -0.481502,73.809275 0,78.584181 0.402711,3.993551 0.864146,5.661381 1.889384,6.829061 1.546065,1.76087 3.337316,2.20454 10.024722,2.483 7.061999,0.29406 46.352316,0.30513 53.055356,0.015 l 0,0 z"
     id="path3376"
     inkscape:connector-curvature="0"
     transform="scale(0.8,0.8)" />
  <path
     style="fill:#ffffff;stroke:#ffffff;stroke-width:1"
     d="m 67.428297,69.576347 c -4.082999,-0.326562 -5.31034,-1.037746 -4.674964,-2.708912 0.355982,-0.936304 1.529223,-1.212135 6.399664,-1.504575 6.218686,-0.373393 47.729193,-0.129505 49.666073,0.291805 1.69763,0.36927 2.34643,0.875979 2.34643,1.832562 0,0.934325 -0.68092,1.500519 -2.23595,1.859219 -1.5124,0.348867 -47.449908,0.553932 -51.501253,0.229901 z"
     id="path3378"
     inkscape:connector-curvature="0"
     transform="scale(0.8,0.8)" />
  <path
     style="fill:#ffffff;stroke:#ffffff;stroke-width:1"
     d="m 71.369068,90.967113 c -7.071537,-0.233519 -8.391747,-0.514778 -8.7293,-1.859696 -0.228772,-0.911499 0.511371,-1.763993 1.820372,-2.096698 0.573571,-0.145783 6.939597,-0.390274 14.146724,-0.543314 14.917503,-0.316766 38.947636,0.03077 40.951826,0.592261 1.26091,0.353256 1.77621,1.095682 1.50646,2.170453 -0.22233,0.885834 -0.74323,1.123881 -3.18367,1.454916 -2.52589,0.342624 -38.138634,0.558601 -46.512412,0.282078 z"
     id="path3380"
     inkscape:connector-curvature="0"
     transform="scale(0.8,0.8)" />
  <path
     style="fill:#ffffff;stroke:#ffffff;stroke-width:1"
     d="m 69.283354,47.154273 c -4.92227,-0.232736 -6.229479,-0.558284 -6.587595,-1.640579 -0.356626,-1.077789 0.290411,-1.892317 1.820464,-2.291703 1.63129,-0.425813 47.386107,-0.663522 51.994177,-0.270125 3.89856,0.332826 4.64272,0.680514 4.65111,2.173101 0.005,0.936018 -0.73888,1.398434 -2.86387,1.779646 -2.02672,0.363583 -42.26957,0.568565 -49.014286,0.24966 z"
     id="path3382"
     inkscape:connector-curvature="0"
     transform="scale(0.8,0.8)" />
  <path
     style="fill:#ffffff;stroke:#ffffff;stroke-width:1"
     d="m 68.62287,28.367314 c -4.454781,-0.220213 -5.684598,-0.566916 -5.964322,-1.681425 -0.288219,-1.148358 0.381198,-1.862391 2.120423,-2.261748 2.178086,-0.500127 51.905789,-0.507041 54.076119,-0.0075 1.71266,0.394186 2.38471,1.002574 2.26477,2.050227 -0.15125,1.321131 -1.35072,1.660875 -6.79679,1.925153 -5.6259,0.273005 -40.0543,0.254407 -45.7002,-0.02469 z"
     id="path3384"
     inkscape:connector-curvature="0"
     transform="scale(0.8,0.8)" />
  <path
     style="fill:#ffffff;stroke:#ffffff;stroke-width:1"
     d="m 153.75309,117.8222 c -2.20337,-0.67023 -3.38564,-1.99632 -3.38564,-3.79747 0,-2.01775 1.3585,-3.28359 4.53643,-4.22699 1.91281,-0.56784 4.25322,-1.80721 4.69982,-2.48881 0.52067,-0.79465 1.07954,-6.41658 1.57422,-15.835989 0.69268,-13.189384 1.19437,-18.007559 2.34895,-22.559033 1.31081,-5.16735 3.20094,-7.713102 7.28964,-9.818169 l 2.33138,-1.200308 -2.94726,-1.478104 c -3.61932,-1.815158 -5.1626,-3.25002 -6.39977,-5.950165 -1.78806,-3.902496 -2.18245,-7.329054 -2.48214,-21.56565 -0.2398,-11.391829 -0.51037,-14.225769 -1.59163,-16.671044 -0.99232,-2.2441247 -2.21661,-3.1568956 -4.93278,-3.6776356 -3.53398,-0.6775287 -4.89247,-2.1168428 -4.60715,-4.8812697 0.0797,-0.7718125 0.32801,-1.6828657 0.5519,-2.0245628 1.2837,-1.95917995 8.77905,-1.89817031 13.06256,0.1063249 5.17196,2.4202522 6.41644,6.4084528 7.28913,23.3594862 0.80188,15.575712 1.2462,19.675665 2.48561,22.935791 0.78125,2.054976 2.47618,3.744352 4.54809,4.533172 1.97235,0.750914 3.13911,1.639637 3.75806,2.86252 0.7125,1.40768 0.87914,2.480864 0.56588,3.644223 -0.40848,1.516987 -1.16604,2.318894 -3.12045,3.303117 -5.39219,2.715467 -6.8131,7.841055 -8.09802,29.211664 -0.80584,13.402642 -1.32498,17.255582 -2.75411,20.440092 -0.81776,1.82223 -2.44247,3.46359 -4.19641,4.23945 -3.12903,1.38411 -8.4693,2.16507 -10.52631,1.53936 z"
     id="path3386"
     inkscape:connector-curvature="0"
     transform="scale(0.8,0.8)" />
  <path
     style="fill:#ffffff;stroke:#ffffff;stroke-width:1"
     d="m 25.160951,118.07025 c -4.796046,-0.85808 -9.136871,-3.8164 -10.894848,-7.42498 -1.767709,-3.62855 -1.98167,-5.60311 -2.868509,-26.472329 C 10.967719,74.057047 10.411169,70.212695 8.9253732,67.096155 7.8246065,64.787233 7.1647814,64.16866 3.9910013,62.470268 0.59720229,60.654135 0.32442533,60.27107 0.32442533,57.321255 c 0,-2.075792 0.0625573,-2.372894 0.62588956,-2.972534 C 1.2945541,53.982295 2.0864738,53.503558 2.7101362,53.28486 3.333799,53.06616 4.3944639,52.692969 5.0671702,52.455541 6.6762335,51.88763 8.3443774,50.317697 9.028486,48.727444 10.306844,45.75582 10.70956,42.730215 11.407105,30.85687 12.380427,14.28937 13.234324,9.3295172 15.774766,5.487371 17.998932,2.1235576 22.396289,0.22294106 27.9548,0.22294106 c 3.919245,0 4.682025,0.52864897 5.335038,3.69749014 0.382679,1.8569907 0.02875,3.41062 -0.918342,4.0311758 -0.396823,0.2600088 -1.612716,0.5155765 -3.105983,0.6528457 -2.808516,0.2581734 -3.506266,0.4714685 -4.298885,1.3141239 -1.6499,1.7540574 -2.042564,4.4471024 -2.74883,18.8525784 -0.559306,11.407966 -1.053475,15.466325 -2.373592,19.493089 -1.179576,3.598071 -2.701924,5.41771 -6.809959,8.139841 -1.039598,0.688875 -1.888914,1.323279 -1.887368,1.409787 0.0015,0.0865 0.910788,0.626569 2.020536,1.200141 3.682042,1.903057 5.550755,4.399172 6.940751,9.271046 1.189094,4.167722 1.750572,9.298965 2.38039,21.753954 0.45962,9.08923 1.016434,15.516177 1.452707,16.767667 0.352982,1.01257 1.781823,1.91423 4.479655,2.82685 3.489262,1.18035 5.144579,2.61173 5.144579,4.44859 0,2.67022 -4.318104,4.71925 -8.404546,3.98813 z"
     id="path3388"
     inkscape:connector-curvature="0"
     transform="scale(0.8,0.8)" />
</svg>
